<svg viewBox="0 0 16 16" fill="none" xmlns="http://www.w3.org/2000/svg">
<path d="M2.66699 11.9998C2.66699 12.368 2.96547 12.6665 3.33366 12.6665L8.66699 12.6665C9.03519 12.6665 9.33366 12.368 9.33366 11.9998C9.33366 11.6316 9.03519 11.3332 8.66699 11.3332L3.33366 11.3332C2.96547 11.3332 2.66699 11.6316 2.66699 11.9998ZM12.0003 2.6665C11.6321 2.6665 11.3337 2.96498 11.3337 3.33317L11.3337 8.6665C11.3337 9.0347 11.6321 9.33317 12.0003 9.33317C12.3685 9.33317 12.667 9.0347 12.667 8.6665L12.667 3.33317C12.667 2.96498 12.3685 2.6665 12.0003 2.6665ZM4.19559 5.13791C3.93524 4.87756 3.93524 4.45545 4.19559 4.1951C4.45594 3.93475 4.87805 3.93475 5.1384 4.1951L9.80506 8.86177C10.0654 9.1221 10.0654 9.54424 9.80506 9.80457C9.54472 10.0649 9.12259 10.0649 8.86226 9.80457L4.19559 5.13791Z" fill="#82DDFD"/>
</svg>
